<?xml version="1.0" standalone="no"?>
<!DOCTYPE svg PUBLIC "-//W3C//DTD SVG 20010904//EN"
 "http://www.w3.org/TR/2001/REC-SVG-20010904/DTD/svg10.dtd">
<svg version="1.0" xmlns="http://www.w3.org/2000/svg"
 width="311.000000pt" height="264.000000pt" viewBox="0 0 311.000000 264.000000"
 preserveAspectRatio="xMidYMid meet">

<g transform="translate(0.000000,264.000000) scale(0.100000,-0.100000)"
fill="#000000" stroke="none">
<path d="M0 1320 l0 -1320 612 1 c337 1 600 4 583 6 -96 11 -216 39 -335 78
-74 24 -144 43 -155 42 -47 -2 -86 4 -81 12 3 5 -2 15 -12 22 -15 13 -16 12
-3 -3 7 -10 9 -18 3 -18 -5 0 -8 -9 -5 -20 6 -22 39 -27 46 -7 3 9 9 9 25 0
14 -8 23 -9 27 -3 4 6 11 7 17 4 6 -4 1 -12 -13 -20 -13 -7 -28 -10 -33 -6 -6
3 -36 7 -69 9 -62 3 -77 8 -77 24 0 6 4 8 9 4 5 -3 16 4 24 16 11 15 16 17 20
7 4 -9 6 -9 6 -1 2 20 -18 25 -35 9 -9 -9 -19 -14 -24 -11 -4 3 -10 -4 -13
-15 -3 -11 -10 -20 -17 -20 -6 0 -8 4 -5 10 3 6 -1 7 -10 4 -8 -4 -26 1 -40
10 -21 14 -24 14 -19 1 4 -8 11 -15 17 -15 6 0 8 -2 5 -5 -3 -3 -22 4 -42 16
-29 17 -34 24 -25 35 7 9 8 14 1 14 -6 0 -12 -5 -14 -12 -4 -11 -199 109 -213
131 -3 6 26 31 65 56 38 26 70 53 70 61 0 8 8 14 17 14 9 0 25 7 35 17 22 19
38 13 113 -47 28 -22 60 -40 71 -40 13 0 24 -8 26 -18 5 -17 157 -100 263
-144 22 -9 57 -23 77 -32 98 -39 311 -87 413 -92 39 -2 79 -4 90 -6 16 -2 21
5 28 44 l9 47 66 -5 c37 -3 75 -7 85 -9 9 -2 15 0 12 5 -6 9 68 18 89 10 19
-7 -1 -24 -33 -28 -58 -9 -63 -21 -6 -15 33 3 76 7 95 7 19 1 41 5 48 9 7 5
12 4 12 -3 0 -6 5 -8 10 -5 6 3 10 2 10 -4 0 -5 -10 -13 -22 -17 l-23 -7 22
-8 c23 -8 169 18 291 53 79 23 98 48 36 48 -27 0 -41 -7 -56 -25 -15 -20 -28
-25 -63 -25 -24 0 -47 5 -50 10 -3 6 -1 10 5 10 20 0 1 18 -25 22 -19 4 -23 2
-15 -7 8 -10 4 -13 -20 -11 -22 2 -34 -3 -41 -16 -12 -22 -32 -23 -53 -3 -17
17 -46 20 -46 5 0 -5 -5 -10 -11 -10 -5 0 -7 6 -3 13 4 6 -2 4 -13 -6 -28 -24
-38 -21 -14 4 16 18 28 21 60 16 28 -3 41 -1 45 9 3 7 11 11 19 9 7 -3 42 3
78 15 65 20 101 25 112 14 8 -9 -4 -35 -13 -29 -5 3 -11 1 -14 -4 -9 -14 8
-21 24 -11 8 5 15 21 16 37 0 16 7 28 15 29 8 0 23 4 34 9 117 46 146 55 156
49 7 -4 9 -3 6 2 -3 6 24 24 61 41 37 18 90 47 117 65 41 27 51 39 53 66 3 29
6 32 37 32 21 0 35 6 39 16 11 28 7 34 -21 34 l-27 0 28 29 c15 15 26 32 24
37 -1 5 4 20 11 33 9 17 10 26 2 34 -16 16 -14 27 4 21 12 -5 15 3 15 43 0 27
5 54 12 61 17 17 40 -32 40 -85 0 -24 4 -43 10 -43 7 0 8 -15 4 -40 -6 -38 -5
-40 13 -31 21 12 101 101 101 114 0 4 -18 6 -40 4 -47 -5 -49 1 -15 41 29 35
31 42 10 42 -19 0 -19 11 -1 36 14 18 15 18 22 1 6 -16 8 -16 24 -2 23 21 48
10 52 -23 3 -25 5 -24 33 23 26 44 29 59 28 117 l-2 68 29 0 c17 0 30 4 30 9
0 5 3 16 6 25 5 13 -1 16 -31 16 -35 0 -36 1 -31 28 3 15 8 44 12 65 6 37 8
38 43 35 24 -2 36 1 35 10 -1 6 -2 32 -2 57 -2 33 -6 45 -17 45 -22 0 -18 17
5 23 16 4 20 14 20 46 l0 41 -40 0 c-29 0 -40 4 -40 15 0 8 7 15 16 15 14 0
16 8 10 50 -6 41 -4 50 9 50 8 0 15 4 15 9 0 23 -14 41 -30 41 -23 0 -40 47
-40 109 0 28 -7 57 -19 74 l-18 28 -17 -26 c-9 -14 -24 -25 -34 -25 -16 1 -16
1 1 14 20 15 23 69 4 84 -15 13 -30 4 -42 -23 -8 -20 -8 -20 -13 0 -3 12 5 27
20 40 l25 21 -21 27 c-12 15 -31 27 -42 27 -28 0 -44 19 -44 53 0 26 -3 29
-22 23 -13 -3 -26 -6 -30 -6 -4 0 -5 -7 -2 -15 4 -8 3 -15 -1 -15 -15 0 -35
30 -35 52 0 13 -5 29 -12 36 -7 7 -11 32 -9 58 2 37 -2 50 -23 71 -27 27 -36
54 -11 33 15 -13 39 -5 30 11 -4 5 2 9 13 9 24 0 75 -53 78 -82 1 -13 3 -26 3
-30 2 -20 16 -5 18 20 4 47 -6 72 -28 72 -12 0 -39 17 -60 39 -22 21 -39 37
-39 35 0 -2 -12 8 -27 22 -15 14 -33 23 -42 22 -8 -2 -13 -5 -11 -8 9 -14 -23
-50 -45 -50 -43 0 -62 36 -55 103 1 12 -13 24 -47 38 -26 12 -70 31 -98 44
-58 26 -163 58 -252 76 -51 11 -64 10 -78 -1 -9 -7 -15 -21 -12 -30 4 -16 -15
-40 -31 -40 -16 0 -49 35 -45 47 2 6 -1 14 -6 18 -6 3 -11 15 -11 26 0 17 -7
19 -70 19 -54 0 -72 4 -76 15 -5 12 -25 15 -96 15 l-90 0 4 -25 c3 -13 1 -22
-3 -19 -5 3 -9 14 -9 25 0 18 -8 19 -110 19 -103 0 -110 -1 -110 -20 0 -11 7
-20 15 -20 8 0 15 5 15 10 0 17 129 12 146 -5 9 -8 11 -15 5 -15 -6 0 -11 -10
-11 -23 0 -20 -5 -23 -42 -25 -24 -1 -55 -5 -70 -8 -25 -5 -28 -3 -28 20 0 15
-8 30 -20 36 -11 6 -20 20 -20 30 0 18 -7 20 -75 20 -67 0 -75 -2 -75 -19 0
-12 8 -21 23 -24 12 -2 0 -4 -28 -4 -27 0 -40 2 -27 4 14 3 22 12 22 24 0 17
-8 19 -74 19 -50 0 -76 -4 -79 -12 -4 -10 -6 -10 -6 0 -1 17 -58 15 -64 -2 -3
-8 -2 -17 4 -20 5 -2 4 -3 -3 -2 -7 2 -12 11 -12 20 2 13 -9 16 -67 16 -61 0
-69 -2 -69 -19 0 -11 8 -22 18 -24 9 -3 -3 -5 -28 -5 -25 0 -37 2 -27 5 9 2
17 13 17 24 0 18 -9 19 -185 19 -176 0 -185 -1 -185 -19 0 -13 8 -21 23 -23
12 -2 -2 -6 -31 -9 -28 -2 -52 -1 -52 4 0 4 9 7 20 7 13 0 20 7 20 20 0 19 -7
20 -145 20 l-145 0 0 -1320z m135 1281 c-3 -6 -11 -11 -16 -11 -5 0 -4 6 3 14
14 16 24 13 13 -3z m-8 -76 c0 -8 -4 -12 -9 -9 -5 3 -6 10 -3 15 9 13 12 11
12 -6z m1939 -28 c1 -9 -2 -17 -7 -17 -5 0 -9 5 -9 11 0 5 -4 7 -10 4 -11 -7
-14 8 -3 19 11 10 26 2 29 -17z m-1041 -16 c-12 -10 -105 -25 -105 -16 0 3 10
10 23 15 29 12 94 13 82 1z m1082 -7 c-3 -3 -12 -4 -19 -1 -8 3 -5 6 6 6 11 1
17 -2 13 -5z m83 -21 c0 -9 10 -11 30 -6 l30 6 0 -61 c0 -49 3 -61 18 -65 9
-3 -3 -5 -28 -5 -25 0 -37 2 -27 5 13 3 17 15 17 48 0 37 -3 43 -25 47 -13 3
-24 2 -23 -1 0 -3 0 -27 -1 -53 l-1 -48 -79 0 c-50 0 -83 4 -87 12 -4 7 -3 8
4 4 9 -5 12 8 12 43 0 55 -6 63 -20 29 -8 -21 -9 -22 -9 -3 -2 42 48 61 156
60 19 0 33 -5 33 -12z m-330 -18 c0 -9 -6 -12 -15 -9 -8 4 -12 10 -9 15 8 14
24 10 24 -6z m-1747 -11 c-4 -10 -8 -12 -13 -4 -4 6 -15 8 -25 4 -13 -5 -16
-4 -11 4 4 7 18 12 31 12 18 0 23 -4 18 -16z m747 6 c-20 -13 -33 -13 -25 0 3
6 14 10 23 10 15 0 15 -2 2 -10z m219 -12 c-1 -18 -2 -19 -6 -5 -3 13 -11 16
-26 12 -17 -5 -19 -4 -7 4 24 17 40 13 39 -11z m-769 -18 c0 -11 -4 -20 -10
-20 -5 0 -10 9 -10 20 0 11 5 20 10 20 6 0 10 -9 10 -20z m1547 -22 c-3 -8 -6
-5 -6 6 -1 11 2 17 5 13 3 -3 4 -12 1 -19z m-1678 -19 c-11 -7 -10 -9 3 -9 14
0 17 -9 16 -55 -2 -54 -2 -55 -32 -55 -20 0 -41 -11 -64 -32 l-35 -33 6 32 c4
17 2 33 -3 35 -8 3 -13 54 -11 105 1 25 21 30 90 24 30 -2 39 -6 30 -12z
m1286 -124 c8 -18 9 -18 13 8 2 21 9 27 28 27 17 0 24 5 24 20 0 11 4 20 8 20
5 0 41 -21 82 -47 62 -39 70 -48 53 -54 -29 -11 -36 -37 -13 -49 10 -5 21 -19
25 -29 7 -24 -19 -91 -37 -91 -9 0 -9 -3 2 -10 8 -5 11 -10 7 -10 -5 0 -5 -5
-2 -10 5 -8 11 -8 20 0 9 8 15 8 20 0 11 -17 23 -11 29 16 6 21 11 24 29 18
43 -14 52 -10 49 19 -1 15 2 27 8 27 5 0 10 12 10 26 l0 25 30 -18 c29 -17 34
-29 42 -101 l3 -24 38 26 c39 26 61 27 51 2 -3 -8 -1 -17 5 -21 6 -3 11 -15
11 -25 0 -10 4 -21 9 -24 4 -3 7 7 5 22 -2 15 -1 19 2 10 3 -10 10 -18 15 -18
6 0 8 4 4 9 -3 5 3 12 14 16 19 6 33 1 135 -45 l49 -22 -29 -13 c-34 -15 -93
-35 -105 -35 -5 0 -9 7 -9 15 0 10 11 15 33 16 25 1 27 3 9 6 -25 5 -82 -14
-82 -27 0 -13 24 -26 84 -44 44 -13 61 -15 70 -6 8 8 7 15 -6 24 -20 15 -14
26 14 26 13 0 18 -7 18 -26 0 -22 4 -25 28 -22 21 2 28 9 30 31 4 31 2 30 39
16 31 -12 55 -19 95 -26 15 -3 32 -11 38 -18 6 -8 19 -11 28 -8 14 4 15 3 2
-5 -8 -6 -18 -8 -22 -6 -4 3 -9 -3 -10 -13 -1 -10 -2 -25 -4 -33 -1 -8 -2 -23
-3 -32 -1 -12 -12 -18 -43 -20 -40 -3 -44 -5 -52 -40 -6 -22 -18 -40 -31 -46
-39 -18 -94 -94 -97 -135 -1 -22 -7 -37 -15 -37 -7 0 -13 -9 -13 -20 0 -16 -7
-20 -30 -20 -16 0 -30 -5 -30 -11 0 -6 15 -8 43 -4 25 4 69 0 111 -10 79 -18
84 -16 103 47 14 49 12 54 -16 38 -14 -7 -21 -7 -21 0 0 5 5 10 12 10 9 0 9 3
0 12 -7 7 -12 28 -12 48 0 40 14 60 44 60 48 0 73 -64 39 -102 -15 -17 -14
-18 45 -18 61 0 62 0 62 28 0 15 8 44 18 64 11 20 18 47 16 59 -1 13 -3 31 -3
39 -3 38 -17 45 -59 26 -40 -18 -62 -16 -62 7 0 8 3 8 9 -1 6 -11 9 -9 14 7 2
11 0 23 -7 26 -6 3 1 3 16 0 32 -6 48 13 25 30 -14 10 -13 13 11 27 15 9 41
18 57 20 28 3 30 1 29 -29 0 -18 -1 -94 -2 -169 -1 -87 -6 -133 -12 -129 -5 3
-10 -2 -10 -12 0 -10 -11 -54 -24 -97 l-23 -79 -31 52 -32 51 35 0 c18 0 37 5
40 10 10 16 -30 12 -102 -12 -38 -12 -70 -23 -73 -26 -3 -2 12 -18 32 -35 27
-24 39 -43 45 -77 7 -36 13 -46 32 -48 13 -2 21 1 17 6 -3 5 2 16 11 23 14 12
16 12 11 -1 -3 -8 -13 -39 -23 -68 -12 -38 -20 -51 -28 -43 -7 7 -6 15 3 25
14 18 7 46 -13 46 -8 0 -22 -9 -32 -20 -16 -17 -16 -21 -2 -35 9 -8 19 -15 24
-15 12 0 15 -48 4 -55 -5 -3 -7 4 -4 15 4 16 0 20 -20 20 -14 0 -29 5 -32 10
-3 6 -13 10 -21 10 -22 0 20 -76 45 -83 20 -5 19 -9 -20 -84 -23 -43 -51 -89
-63 -103 -13 -14 -34 -43 -47 -65 l-23 -39 -7 33 c-10 46 -17 50 -79 41 -108
-17 -224 -30 -228 -26 -2 3 10 12 27 21 58 29 160 109 154 119 -4 6 -8 6 -11
-2 -2 -7 -15 -12 -29 -12 -21 0 -24 4 -19 23 3 12 6 30 6 40 0 12 8 17 26 17
32 0 30 30 -4 45 -12 5 -23 15 -23 22 -1 7 -2 23 -3 36 -1 16 -8 23 -28 25
-26 3 -28 1 -28 -35 0 -26 6 -44 20 -56 13 -11 20 -29 20 -54 0 -27 -6 -42
-20 -51 -11 -7 -20 -19 -20 -27 0 -34 -99 -41 -142 -10 -30 20 -35 19 -52 -12
l-14 -28 59 3 59 4 -3 -40 c-2 -21 -6 -43 -9 -48 -3 -5 -3 -35 -1 -67 4 -39
10 -57 19 -57 9 0 14 12 14 35 0 31 3 35 25 35 16 0 25 6 25 15 0 8 -8 15 -17
15 -17 1 -17 1 0 11 10 6 27 9 37 6 13 -3 21 2 26 15 6 19 7 19 33 -6 30 -29
56 -32 95 -12 44 22 85 4 71 -32 -6 -15 -8 -14 -16 5 -4 13 -15 23 -24 23 -15
0 -18 -15 -18 -72 1 -25 -7 -33 -30 -29 -4 0 -6 -3 -5 -7 4 -11 -42 -63 -77
-89 -29 -20 -32 -20 -75 -6 -25 8 -50 19 -56 24 -14 11 -57 -19 -48 -33 5 -8
1 -9 -10 -5 -10 4 -39 -6 -73 -25 l-55 -31 -19 24 c-11 13 -33 48 -49 76 -37
65 -68 72 -88 21 -10 -27 -14 -30 -22 -18 -5 8 -10 11 -10 7 0 -5 -16 0 -36
12 -19 11 -52 24 -73 27 -33 5 -40 3 -57 -23 -18 -27 -44 -96 -44 -120 0 -6
19 -14 43 -18 36 -7 39 -9 20 -16 -15 -6 -20 -14 -16 -28 4 -15 1 -21 -11 -21
-26 0 -18 -29 9 -36 20 -5 23 -9 14 -20 -6 -8 -17 -14 -24 -14 -7 0 -15 -9
-18 -19 -4 -17 2 -21 50 -27 30 -3 97 -4 149 0 52 3 94 4 94 2 0 -2 -46 -21
-101 -41 l-102 -37 -49 16 c-28 9 -53 16 -57 16 -3 0 -6 -23 -6 -50 0 -34 -5
-54 -15 -60 -24 -15 -34 5 -38 73 l-4 63 -47 26 c-25 14 -84 47 -131 72 -47
25 -96 55 -110 65 l-25 20 24 25 c28 29 53 33 71 11 7 -8 29 -15 48 -15 34 0
35 1 16 15 -10 8 -32 15 -47 15 -17 0 -30 7 -34 18 -3 9 -15 27 -25 39 -20 21
-20 21 1 28 12 3 21 13 21 21 0 16 -16 19 -25 4 -11 -18 -32 -10 -32 13 0 34
-13 57 -34 57 -10 0 -19 -4 -19 -10 0 -5 7 -10 16 -10 8 0 12 -4 9 -10 -3 -5
1 -23 9 -39 l16 -30 -56 -25 -56 -26 -37 29 c-69 56 -96 90 -85 109 12 20 10
90 -2 102 -12 11 -54 -6 -54 -22 0 -7 6 -25 14 -40 29 -54 -23 -7 -88 82 -197
268 -306 594 -306 921 l0 77 58 7 c110 13 242 55 396 127 60 28 120 51 132 52
12 0 20 4 18 7 -4 7 69 49 86 49 7 0 19 8 27 18 13 15 14 11 8 -35 -4 -40 -2
-53 7 -52 22 0 133 46 131 52 -2 4 -3 27 -3 52 0 36 -3 45 -17 45 -13 0 -9 6
12 20 17 11 45 20 63 20 28 0 32 3 27 19 -4 15 5 25 40 45 25 15 49 25 54 22
4 -3 16 3 26 14 18 20 18 20 35 -7 9 -16 20 -37 25 -48z m969 -83 c3 -5 -8 -6
-25 -4 -16 2 -29 6 -29 8 0 8 49 4 54 -4z m-704 -78 c0 -14 -3 -14 -15 -4 -8
7 -15 14 -15 16 0 2 7 4 15 4 8 0 15 -7 15 -16z m1100 -429 c0 -8 -2 -15 -4
-15 -2 0 -6 7 -10 15 -3 8 -1 15 4 15 6 0 10 -7 10 -15z m58 -20 c-2 -50 -12
-51 -25 -4 -9 35 -8 39 8 39 15 0 18 -7 17 -35z m-60 -17 c20 -20 13 -98 -8
-98 -5 0 -4 16 1 35 11 40 6 53 -25 65 -20 9 -20 9 0 9 11 1 25 -4 32 -11z
m-2541 -335 c-3 -10 -5 -2 -5 17 0 19 2 27 5 18 2 -10 2 -26 0 -35z m2541
-309 c-17 -16 -68 -7 -68 13 0 13 3 13 15 3 20 -16 45 -6 45 19 0 11 3 28 8
38 5 13 8 8 10 -21 2 -23 -2 -44 -10 -52z m-221 14 c-2 -13 -4 -3 -4 22 0 25
2 35 4 23 2 -13 2 -33 0 -45z m220 -70 c-3 -8 -6 -5 -6 6 -1 11 2 17 5 13 3
-3 4 -12 1 -19z m-2707 -118 c11 -11 20 -27 20 -35 0 -20 -22 -65 -32 -65 -4
0 -3 8 3 18 14 23 4 71 -16 79 -38 14 -61 -50 -29 -81 8 -9 12 -16 7 -16 -37
0 -45 80 -11 104 29 20 34 20 58 -4z m2297 4 c-3 -3 -12 -4 -19 -1 -8 3 -5 6
6 6 11 1 17 -2 13 -5z m-2109 -276 c7 -7 12 -16 12 -22 0 -5 -6 -2 -13 8 -21
29 -51 16 -58 -24 -6 -32 -14 -23 -9 10 5 37 44 52 68 28z m1384 -11 c21 -32
7 -64 -43 -105 -50 -41 -79 -52 -79 -32 0 6 -11 10 -24 10 -14 0 -28 5 -31 10
-3 6 2 10 12 10 26 0 39 12 46 41 5 21 2 28 -19 38 -36 16 -42 6 -8 -12 l29
-15 -38 -18 c-20 -10 -37 -21 -37 -26 0 -4 -9 -8 -21 -8 -19 0 -21 4 -16 48 3
26 6 48 6 50 1 1 27 2 60 2 41 0 62 5 72 16 14 18 78 11 91 -9z m175 9 c4 -8
24 -18 43 -23 l35 -9 -50 -37 c-57 -41 -74 -44 -105 -19 -28 22 -30 68 -4 87
25 19 71 19 81 1z m583 -5 c13 -25 13 -51 0 -51 -5 0 -10 8 -10 17 0 9 -7 25
-17 35 -15 16 -15 18 0 18 9 0 21 -9 27 -19z m-692 -23 c-3 -7 -11 -13 -18
-13 -7 0 -15 6 -17 13 -3 7 4 12 17 12 13 0 20 -5 18 -12z m-1435 -33 c-3 -9
-8 -14 -10 -11 -3 3 -2 9 2 15 9 16 15 13 8 -4z m124 -10 c6 -14 10 -25 8 -25
-8 0 -35 32 -35 41 0 18 15 9 27 -16z m263 0 c0 -8 -10 -19 -21 -26 -21 -11
-21 -11 -3 15 22 30 24 31 24 11z m1055 -15 c3 -5 1 -10 -4 -10 -6 0 -11 5
-11 10 0 6 2 10 4 10 3 0 8 -4 11 -10z m-1275 -10 c0 -5 -5 -10 -11 -10 -5 0
-7 5 -4 10 3 6 8 10 11 10 2 0 4 -4 4 -10z m528 -145 c-3 -23 -1 -32 6 -25 23
23 36 10 36 -37 0 -30 -4 -43 -9 -35 -4 7 -6 24 -3 38 2 13 0 24 -6 24 -14 0
-33 -25 -25 -33 3 -4 -7 -7 -23 -7 l-29 -1 25 -15 c24 -15 23 -15 -29 -10 -61
6 -74 15 -76 50 0 19 2 22 12 14 10 -8 13 -2 13 31 l0 41 56 0 56 0 -4 -35z
m-183 -45 c-3 -5 -11 -10 -16 -10 -6 0 -7 5 -4 10 3 6 11 10 16 10 6 0 7 -4 4
-10z m459 -15 c3 -8 1 -15 -4 -15 -6 0 -10 7 -10 15 0 8 2 15 4 15 2 0 6 -7
10 -15z m621 -75 c-3 -5 -12 -10 -18 -10 -7 0 -6 4 3 10 19 12 23 12 15 0z
m-557 -37 c2 -8 -5 -13 -17 -13 -21 0 -35 13 -24 24 10 10 36 3 41 -11z m-867
-10 c13 -17 13 -17 -6 -3 -11 8 -22 16 -24 17 -2 2 0 3 6 3 6 0 17 -8 24 -17z
m44 -23 c3 -6 -1 -7 -9 -4 -18 7 -21 14 -7 14 6 0 13 -4 16 -10z"/>
<path d="M135 2349 c-4 -6 -5 -12 -2 -15 2 -3 7 2 10 11 7 17 1 20 -8 4z"/>
<path d="M100 2306 c0 -2 7 -6 15 -10 8 -3 15 -1 15 4 0 6 -7 10 -15 10 -8 0
-15 -2 -15 -4z"/>
<path d="M1445 2180 c-3 -5 -1 -10 4 -10 6 0 11 5 11 10 0 6 -2 10 -4 10 -3 0
-8 -4 -11 -10z"/>
<path d="M1307 2143 c-4 -3 -7 -17 -7 -30 0 -33 24 -24 28 10 3 26 -7 35 -21
20z"/>
<path d="M1620 2105 c0 -38 3 -45 20 -45 24 0 36 40 20 69 -20 38 -40 26 -40
-24z"/>
<path d="M1347 2123 c-14 -23 31 -42 48 -20 3 4 2 5 -2 2 -3 -3 -14 2 -24 11
-9 8 -19 11 -22 7z"/>
<path d="M1399 2121 c7 -5 17 -15 22 -22 6 -10 9 -8 9 9 0 16 -6 22 -22 22
-17 0 -19 -3 -9 -9z"/>
<path d="M1251 2086 c-13 -14 -18 -26 -13 -30 13 -8 42 20 42 40 0 19 -3 18
-29 -10z"/>
<path d="M1263 2048 c-38 -12 -44 -28 -10 -28 12 0 28 9 35 20 7 11 11 20 10
19 -2 -1 -18 -6 -35 -11z"/>
<path d="M1420 2033 c0 -18 2 -33 4 -33 9 0 13 39 5 51 -6 10 -9 4 -9 -18z"/>
<path d="M1680 1972 c5 -10 21 -30 34 -47 l25 -29 26 24 c14 13 25 27 25 32 0
13 -55 9 -69 -4 -11 -10 -13 -10 -7 0 4 6 2 12 -4 12 -6 0 -9 4 -6 9 3 5 -3
11 -14 14 -16 4 -18 2 -10 -11z"/>
<path d="M1403 1928 c-32 -16 -39 -98 -7 -98 8 0 14 -4 14 -10 0 -5 6 -10 13
-10 9 0 14 12 15 31 0 23 -3 29 -14 25 -51 -21 -50 -21 -34 -5 28 28 60 42 64
27 3 -7 6 -20 9 -28 4 -12 6 -11 13 5 4 11 16 29 26 39 9 10 15 23 12 28 -7
11 -84 9 -111 -4z"/>
<path d="M1620 1900 c0 -5 10 -10 23 -10 42 -1 57 -22 47 -65 -5 -21 -7 -43
-4 -47 3 -4 -2 -8 -10 -8 -19 0 -21 -16 -4 -26 7 -5 8 -3 3 6 -5 8 -4 11 3 6
6 -3 13 -2 17 4 3 5 11 10 18 10 6 0 3 -6 -7 -13 -32 -24 -10 -47 46 -47 28 0
47 4 43 9 -3 6 2 14 11 19 15 9 16 14 4 41 -14 35 -14 35 -42 20 -31 -17 -66
-20 -74 -8 -4 8 -3 9 4 5 8 -4 12 0 12 11 0 15 2 16 11 3 9 -12 10 -12 5 3 -3
10 -6 21 -6 23 0 3 -4 2 -10 -1 -5 -3 -10 -1 -10 4 0 14 6 14 31 1 10 -6 19
-17 19 -25 0 -9 6 -12 15 -9 12 5 10 13 -13 45 -15 21 -34 38 -42 37 -8 0 -28
4 -43 10 -35 15 -47 15 -47 2z m111 -37 c13 -16 12 -17 -3 -4 -10 7 -18 15
-18 17 0 8 8 3 21 -13z"/>
<path d="M1617 1865 c-8 -18 11 -31 25 -17 11 11 3 32 -12 32 -4 0 -10 -7 -13
-15z"/>
<path d="M1517 1835 c-4 -8 -2 -17 3 -20 11 -7 60 15 60 27 0 14 -58 9 -63 -7z"/>
<path d="M2402 1834 c1 -9 9 -19 16 -22 9 -3 13 2 10 14 -1 9 -9 19 -16 22 -9
3 -13 -2 -10 -14z"/>
<path d="M450 1816 c0 -9 5 -16 10 -16 6 0 10 4 10 9 0 6 -4 13 -10 16 -5 3
-10 -1 -10 -9z"/>
<path d="M2253 1822 c-28 -4 -31 -46 -7 -80 13 -19 19 -21 30 -11 13 10 14 7
13 -22 -5 -64 21 -78 48 -26 28 54 14 117 -28 117 -10 0 -22 6 -26 13 -4 7
-18 11 -30 9z"/>
<path d="M1630 1811 c0 -6 5 -13 10 -16 6 -3 10 1 10 9 0 9 -4 16 -10 16 -5 0
-10 -4 -10 -9z"/>
<path d="M620 1794 c0 -10 59 -64 69 -64 5 0 19 12 31 28 l22 27 -28 3 c-16 2
-30 -1 -32 -7 -5 -16 -22 -13 -22 4 0 8 -9 15 -20 15 -11 0 -20 -3 -20 -6z"/>
<path d="M950 1790 c0 -22 16 -43 28 -39 7 3 3 14 -8 29 -13 17 -20 20 -20 10z"/>
<path d="M1410 1793 c-45 -14 -45 -14 -30 -23 12 -7 11 -10 -5 -16 -163 -56
-245 -147 -245 -272 0 -65 37 -154 71 -173 10 -5 19 -16 19 -24 0 -8 5 -15 11
-15 5 0 7 -4 4 -10 -3 -5 2 -10 11 -10 10 0 33 -5 51 -12 l33 -12 0 -207 0
-208 58 -6 c31 -3 67 -8 78 -10 29 -6 40 -50 19 -81 -8 -13 -12 -24 -7 -24 15
0 53 41 46 51 -3 5 -1 8 4 7 5 -2 30 12 56 31 37 28 46 41 46 64 0 30 0 30 21
11 13 -11 23 -14 27 -8 8 12 66 13 78 2 10 -11 16 -10 37 6 21 16 13 46 -12
46 -10 0 -23 11 -29 24 -13 30 -52 25 -52 -6 0 -11 -5 -18 -12 -15 -7 2 -12
14 -10 25 2 16 -2 22 -15 21 -10 0 -13 -3 -6 -6 10 -3 9 -12 -3 -35 -27 -52
-28 -46 -22 227 l2 71 44 -42 c35 -34 48 -41 66 -35 29 11 28 46 -1 45 -12 0
-20 3 -18 6 3 4 -19 17 -48 28 l-52 20 35 15 c34 15 36 15 62 -10 15 -15 30
-24 33 -21 3 2 8 27 11 54 4 27 18 73 31 101 33 68 34 162 4 221 -27 53 -114
128 -176 151 -35 13 -49 24 -47 35 2 12 -5 16 -27 16 -20 0 -29 -4 -26 -12 4
-9 -12 -14 -57 -16 -55 -3 -60 -2 -48 13 15 18 12 24 -10 18z m40 -192 c0 -5
-9 -7 -20 -4 -11 3 -20 7 -20 9 0 2 9 4 20 4 11 0 20 -4 20 -9z m-220 -92 c15
-76 20 -74 39 14 11 50 15 57 36 57 25 0 24 3 53 -110 l9 -35 7 35 c20 95 27
110 46 110 25 0 24 -5 -4 -110 -22 -82 -24 -85 -52 -85 -27 0 -30 4 -44 58
l-16 58 -14 -58 c-14 -54 -17 -58 -44 -58 -28 0 -30 3 -52 85 -29 106 -29 110
-1 110 21 0 25 -7 37 -71z m375 46 c20 -19 25 -34 25 -75 0 -72 -29 -100 -103
-100 -65 0 -67 3 -67 100 0 97 2 100 67 100 44 0 58 -5 78 -25z m163 2 c3 -14
-3 -17 -29 -15 -48 4 -49 -22 -2 -47 72 -38 49 -120 -33 -113 -21 2 -41 10
-48 20 -15 24 -3 31 28 17 22 -11 29 -10 43 3 14 15 12 18 -25 42 -49 30 -60
58 -37 92 14 21 23 25 58 22 31 -2 43 -8 45 -21z"/>
<path d="M1510 1480 c0 -63 2 -70 20 -70 29 0 60 36 60 70 0 34 -31 70 -60 70
-18 0 -20 -7 -20 -70z"/>
<path d="M1128 1768 l-23 -23 45 -6 c25 -4 48 -5 53 -2 4 2 7 -3 7 -11 0 -24
22 -31 37 -11 19 26 17 29 -26 53 -49 28 -65 28 -93 0z"/>
<path d="M1964 1765 c-4 -9 0 -21 8 -28 17 -13 33 -51 19 -43 -13 8 -23 -21
-27 -74 -3 -44 -3 -44 14 -24 9 12 25 24 34 27 23 8 58 -29 58 -60 0 -18 5
-23 28 -23 15 0 42 -4 60 -9 31 -9 32 -9 26 17 -4 15 -14 41 -23 57 -15 25
-23 29 -49 27 -30 -3 -32 -2 -28 29 2 17 10 35 17 40 20 12 9 18 -52 26 -44 7
-54 12 -54 27 0 25 -23 33 -31 11z"/>
<path d="M410 1665 c0 -42 -3 -55 -15 -55 -13 0 -13 -3 -3 -20 16 -25 24 -25
31 1 3 11 15 23 26 26 28 7 28 52 1 81 -32 34 -40 27 -40 -33z"/>
<path d="M616 1587 c-3 -12 -6 -36 -6 -53 0 -26 4 -30 23 -29 31 2 37 59 9 86
-19 17 -20 17 -26 -4z"/>
<path d="M2004 1593 c-15 -16 -15 -18 6 -35 26 -21 40 -16 40 17 0 29 -25 39
-46 18z"/>
<path d="M2392 1598 c-17 -17 -15 -63 3 -78 21 -18 45 4 45 41 0 33 -30 55
-48 37z"/>
<path d="M455 1590 c-3 -5 3 -10 14 -10 12 0 21 5 21 10 0 6 -6 10 -14 10 -8
0 -18 -4 -21 -10z"/>
<path d="M872 1580 c0 -14 2 -19 5 -12 2 6 2 18 0 25 -3 6 -5 1 -5 -13z"/>
<path d="M910 1586 c0 -22 19 -29 36 -15 12 10 12 14 2 20 -20 13 -38 10 -38
-5z"/>
<path d="M970 1590 c0 -5 5 -10 11 -10 5 0 7 5 4 10 -3 6 -8 10 -11 10 -2 0
-4 -4 -4 -10z"/>
<path d="M1020 1550 c0 -5 5 -10 11 -10 5 0 7 5 4 10 -3 6 -8 10 -11 10 -2 0
-4 -4 -4 -10z"/>
<path d="M2020 1465 c0 -20 5 -25 25 -25 25 0 25 1 9 25 -9 14 -20 25 -25 25
-5 0 -9 -11 -9 -25z"/>
<path d="M607 1474 c-4 -4 -7 -16 -7 -26 0 -10 -7 -18 -15 -18 -8 0 -15 -5
-15 -11 0 -5 4 -8 9 -4 5 3 12 1 16 -5 8 -13 30 -13 78 1 21 5 35 14 32 20 -4
5 -11 7 -16 4 -5 -4 -12 1 -15 9 -3 9 -14 16 -23 16 -9 0 -22 5 -27 10 -6 6
-13 7 -17 4z"/>
<path d="M2455 1460 c3 -5 11 -10 16 -10 6 0 7 5 4 10 -3 6 -11 10 -16 10 -6
0 -7 -4 -4 -10z"/>
<path d="M1955 1428 c-4 -10 -4 -26 0 -35 8 -17 8 -17 12 0 3 9 3 25 0 35 -4
16 -4 16 -12 0z"/>
<path d="M867 1416 c-7 -17 8 -31 40 -39 27 -6 37 5 28 33 -8 24 -60 28 -68 6z"/>
<path d="M455 1380 c-19 -36 -19 -41 0 -34 8 4 15 15 15 26 0 10 6 18 13 17 6
-1 26 -1 42 1 26 1 27 3 10 10 -40 17 -64 11 -80 -20z"/>
<path d="M2508 1391 c4 -10 7 -11 10 -3 2 7 8 10 13 6 5 -3 9 -1 9 5 0 5 -9 9
-19 8 -12 -1 -17 -6 -13 -16z"/>
<path d="M2196 1279 c-47 -46 -67 -72 -63 -83 4 -9 11 -16 17 -16 6 0 8 4 5
10 -3 6 1 7 10 3 12 -4 13 -8 5 -13 -9 -6 -9 -9 0 -15 14 -9 21 -3 24 22 2 10
10 19 19 21 23 5 23 -35 0 -60 -15 -17 -15 -19 0 -36 12 -13 17 -37 17 -80 0
-50 3 -62 16 -62 24 0 55 20 48 31 -3 6 4 18 16 29 21 18 21 18 1 25 -10 3
-22 13 -25 21 -3 8 -10 13 -15 9 -32 -19 -2 79 40 134 21 26 17 41 -10 41 -13
0 -18 7 -17 23 1 18 6 22 32 19 22 -2 33 2 38 14 8 21 10 20 -44 26 -44 4 -46
3 -114 -63z"/>
<path d="M458 1324 c-11 -11 -10 -72 1 -79 14 -8 18 6 11 48 -3 22 -8 35 -12
31z"/>
<path d="M620 1320 c0 -6 7 -10 15 -10 8 0 15 2 15 4 0 2 -7 6 -15 10 -8 3
-15 1 -15 -4z"/>
<path d="M2420 1305 c0 -8 2 -15 4 -15 2 0 6 7 10 15 3 8 1 15 -4 15 -6 0 -10
-7 -10 -15z"/>
<path d="M1087 1289 c-10 -13 -17 -29 -17 -36 0 -7 -5 -21 -11 -32 -8 -12 -9
-23 -2 -36 10 -17 11 -17 17 3 4 12 11 22 16 22 4 0 10 9 13 20 3 11 12 20 21
20 21 0 20 13 -2 40 l-19 23 -16 -24z"/>
<path d="M1180 1270 c0 -5 5 -10 10 -10 6 0 10 5 10 10 0 6 -4 10 -10 10 -5 0
-10 -4 -10 -10z"/>
<path d="M1810 1251 c0 -6 5 -13 10 -16 6 -3 10 1 10 9 0 9 -4 16 -10 16 -5 0
-10 -4 -10 -9z"/>
<path d="M1886 1234 c-9 -22 3 -32 14 -14 12 19 12 30 1 30 -5 0 -12 -7 -15
-16z"/>
<path d="M1273 1195 c-9 -25 4 -29 17 -6 7 15 7 21 0 21 -6 0 -13 -7 -17 -15z"/>
<path d="M1970 1153 c-44 -13 -43 -13 -25 -33 24 -26 32 -25 39 6 8 30 7 33
-14 27z"/>
<path d="M1645 1140 c-4 -6 -1 -17 5 -25 14 -17 60 -20 60 -5 0 6 -7 10 -15
10 -8 0 -15 4 -15 10 0 5 -7 6 -17 3 -11 -4 -14 -3 -9 5 4 7 5 12 2 12 -3 0
-8 -5 -11 -10z"/>
<path d="M1275 1110 c-3 -6 1 -7 9 -4 18 7 21 14 7 14 -6 0 -13 -4 -16 -10z"/>
<path d="M1951 1080 c-9 -5 -7 -11 4 -20 13 -11 18 -11 31 2 14 14 14 16 -4
20 -11 3 -25 2 -31 -2z"/>
<path d="M516 1065 c4 -8 10 -12 15 -9 14 8 10 24 -6 24 -9 0 -12 -6 -9 -15z"/>
<path d="M695 1068 c-4 -9 -4 -28 -2 -44 3 -23 9 -30 30 -32 15 -2 27 1 27 7
0 6 -4 11 -10 11 -5 0 -10 11 -10 24 0 30 -27 56 -35 34z"/>
<path d="M970 1065 c-22 -27 -5 -37 19 -11 19 20 21 26 9 26 -9 0 -21 -7 -28
-15z"/>
<path d="M1713 1063 c-18 -2 -33 -8 -33 -14 0 -12 36 -12 63 2 21 10 21 10 3
-5 -11 -9 -28 -16 -38 -16 -20 0 -16 -12 15 -55 15 -19 15 -19 36 -1 15 13 18
23 11 30 -17 17 -11 36 10 36 11 0 20 4 20 9 0 10 -26 22 -43 19 -7 0 -27 -3
-44 -5z"/>
<path d="M2003 1053 c-22 -8 -15 -35 7 -28 17 5 20 2 21 -27 0 -30 1 -31 11
-11 21 43 -2 82 -39 66z"/>
<path d="M2396 1052 c-2 -4 4 -8 15 -8 10 0 19 4 19 8 0 10 -27 10 -34 0z"/>
<path d="M1220 1005 c0 -29 8 -32 26 -7 19 24 17 32 -6 32 -15 0 -20 -7 -20
-25z"/>
<path d="M631 1011 c-10 -6 -10 -10 -1 -16 13 -8 24 -1 19 14 -3 6 -10 7 -18
2z"/>
<path d="M2285 948 c-44 -5 -88 -8 -98 -9 -16 0 -16 -3 6 -22 70 -64 59 -62
113 -19 27 21 56 41 64 44 32 10 -10 13 -85 6z"/>
<path d="M1216 942 c-9 -15 1 -47 16 -50 24 -5 30 36 8 48 -10 6 -21 6 -24 2z"/>
<path d="M1075 930 c-11 -4 -23 -6 -26 -4 -9 5 -33 -25 -26 -32 2 -3 25 -4 49
-2 41 3 43 4 33 24 -8 15 -16 19 -30 14z"/>
<path d="M958 883 c7 -3 16 -2 19 1 4 3 -2 6 -13 5 -11 0 -14 -3 -6 -6z"/>
<path d="M842 829 c2 -7 10 -15 17 -17 8 -3 12 1 9 9 -2 7 -10 15 -17 17 -8 3
-12 -1 -9 -9z"/>
<path d="M1427 784 c-13 -13 -7 -61 8 -74 22 -19 37 0 33 41 -3 32 -24 49 -41
33z"/>
<path d="M1675 703 c-8 -34 1 -43 43 -43 20 0 55 -5 78 -10 22 -5 60 -12 83
-15 l43 -5 -31 26 c-21 17 -37 23 -51 19 -13 -4 -27 1 -44 18 -16 16 -40 26
-69 29 -42 5 -46 3 -52 -19z"/>
<path d="M1253 683 c-18 -6 -16 -23 1 -23 17 0 30 16 19 23 -5 2 -14 2 -20 0z"/>
<path d="M1250 614 c-6 -14 -10 -38 -10 -54 0 -23 5 -31 25 -36 30 -8 44 1 27
18 -7 7 -12 31 -12 55 0 48 -15 57 -30 17z"/>
<path d="M1200 530 c0 -5 5 -10 10 -10 6 0 10 5 10 10 0 6 -4 10 -10 10 -5 0
-10 -4 -10 -10z"/>
<path d="M1043 513 c-18 -6 -16 -23 1 -23 17 0 30 16 19 23 -5 2 -14 2 -20 0z"/>
<path d="M1222 465 c-15 -33 -15 -35 3 -35 10 0 15 10 15 30 0 37 -3 37 -18 5z"/>
<path d="M1110 440 c0 -5 5 -10 11 -10 7 0 18 -8 26 -17 8 -10 12 -12 8 -5 -3
6 0 12 7 12 7 1 2 7 -12 15 -30 17 -40 18 -40 5z"/>
<path d="M1267 413 c-4 -3 -7 -18 -6 -32 1 -26 1 -25 10 3 9 31 7 41 -4 29z"/>
<path d="M1820 510 c20 -13 33 -13 25 0 -3 6 -14 10 -23 10 -15 0 -15 -2 -2
-10z"/>
<path d="M2164 2620 c62 -20 76 -19 76 6 0 11 -15 14 -67 13 l-68 -1 59 -18z"/>
<path d="M2250 2620 c0 -11 7 -20 16 -20 8 0 13 -4 10 -9 -3 -5 16 -16 42 -26
26 -10 96 -42 155 -71 59 -30 119 -54 133 -54 16 0 28 -8 33 -22 5 -13 46 -50
91 -83 45 -33 94 -72 108 -87 14 -16 31 -28 39 -28 7 0 26 -13 41 -30 18 -19
39 -30 56 -30 22 0 26 -4 26 -28 0 -16 22 -61 56 -112 l55 -85 -2 95 c-1 61
-6 99 -15 107 -16 17 -27 17 -18 1 5 -9 2 -9 -9 1 -18 14 -23 26 -8 17 15 -9
19 18 5 31 -17 18 -27 16 -20 -2 11 -31 -14 -13 -68 47 -31 34 -53 64 -50 67
3 3 10 -1 15 -9 9 -13 10 -13 6 0 -2 8 -16 16 -30 18 -19 2 -29 11 -33 27 -5
22 -8 23 -21 10 -21 -21 -20 -22 -25 33 -1 17 -16 32 -32 32 -6 0 -1 -7 10
-16 18 -14 18 -15 -6 -8 -14 4 -35 16 -47 28 -32 32 -231 148 -285 167 -26 9
-45 18 -43 21 3 3 -3 8 -15 11 -22 6 -28 -8 -7 -16 7 -4 8 -6 1 -6 -7 -1 -19
10 -28 24 -15 22 -24 25 -76 25 -53 0 -60 -2 -60 -20z m544 -286 c3 -8 2 -12
-4 -9 -6 3 -10 10 -10 16 0 14 7 11 14 -7z"/>
<path d="M2590 2635 c0 -2 17 -12 38 -22 20 -9 39 -20 42 -23 3 -3 42 -30 87
-60 45 -30 79 -59 76 -65 -4 -5 -2 -7 2 -2 5 4 18 1 29 -6 16 -11 39 -12 100
-5 58 6 82 5 87 -4 8 -13 0 -118 -11 -133 -8 -12 25 -46 36 -37 4 4 4 -1 1
-10 -4 -12 -1 -16 14 -15 17 1 19 9 19 93 0 84 -2 93 -22 107 -55 37 -80 66
-76 89 3 21 7 23 51 20 l47 -3 0 41 0 40 -40 0 c-33 0 -40 -3 -40 -20 0 -11 7
-20 15 -20 8 0 15 -4 15 -10 0 -5 -18 -10 -39 -10 -22 0 -43 5 -46 10 -3 6 1
10 9 10 9 0 16 9 16 20 0 18 -7 20 -68 20 -59 0 -68 -3 -77 -22 -6 -12 -17
-23 -25 -25 -10 -3 -9 -1 3 7 28 18 21 40 -13 40 -23 0 -30 -5 -30 -19 0 -11
5 -22 10 -24 6 -3 5 -4 -2 -3 -7 1 -14 12 -16 24 -3 21 -9 22 -98 22 -52 0
-94 -2 -94 -5z"/>
<path d="M2730 2461 c0 -5 5 -13 10 -16 6 -3 10 -2 10 4 0 5 -4 13 -10 16 -5
3 -10 2 -10 -4z"/>
<path d="M2406 2402 c-9 -15 10 -67 25 -67 8 0 15 10 17 23 5 34 -27 67 -42
44z"/>
<path d="M2710 2186 c0 -2 8 -10 18 -17 15 -13 16 -12 3 4 -13 16 -21 21 -21
13z"/>
<path d="M2706 2129 c7 -12 -28 -20 -41 -9 -9 8 -11 4 -7 -15 5 -28 20 -33 28
-10 4 8 9 13 13 11 3 -2 14 4 23 13 16 16 16 17 -2 17 -10 0 -17 -3 -14 -7z"/>
<path d="M2970 2129 c0 -5 5 -7 10 -4 6 3 10 8 10 11 0 2 -4 4 -10 4 -5 0 -10
-5 -10 -11z"/>
<path d="M3055 614 c-12 -18 -13 -29 -6 -38 12 -15 -4 -36 -28 -36 -14 0 -14
-1 -1 -10 13 -9 13 -10 0 -10 -12 0 -12 -2 -2 -8 7 -5 14 -26 16 -47 4 -33 -1
-43 -26 -67 -25 -23 -39 -28 -83 -28 -46 0 -56 -4 -75 -27 -18 -23 -20 -36
-16 -97 5 -64 4 -68 -7 -43 l-13 28 -26 -21 c-19 -14 -25 -27 -21 -42 l5 -23
-20 24 c-12 15 -31 25 -53 26 -19 1 -29 0 -22 -2 16 -6 5 -33 -13 -33 -8 0
-14 -8 -14 -18 0 -18 -57 -59 -68 -48 -3 4 -5 27 -5 52 1 51 5 50 -79 11 -44
-21 -47 -24 -50 -67 l-3 -45 -50 0 c-43 0 -50 3 -47 18 4 21 10 23 -128 -27
l-95 -35 493 0 492 -1 0 104 c0 58 -4 107 -8 110 -12 7 -15 93 -3 100 13 8 14
236 1 236 -5 0 -10 9 -10 20 0 14 -5 18 -16 13 -15 -5 -15 -3 0 26 20 37 5 42
-19 5z m-135 -299 c-7 -8 -16 -15 -21 -15 -5 0 -9 7 -9 15 0 9 9 15 21 15 18
0 19 -2 9 -15z m112 -61 c0 -28 -4 -50 -11 -52 -6 -2 -11 -17 -11 -33 0 -19
-5 -29 -15 -29 -10 0 -15 10 -15 29 0 28 -3 30 -41 33 l-41 3 62 53 c35 29 65
51 67 49 2 -3 4 -26 5 -53z m-194 -96 c-3 -7 -13 -15 -24 -17 -16 -3 -17 -1
-5 13 16 19 34 21 29 4z"/>
<path d="M2853 395 c-19 -21 -16 -27 7 -13 11 7 20 16 20 20 0 12 -14 9 -27
-7z"/>
<path d="M2800 345 c-7 -8 -8 -15 -2 -15 5 0 15 7 22 15 7 8 8 15 2 15 -5 0
-15 -7 -22 -15z"/>
<path d="M2436 314 c-4 -9 -4 -19 -1 -22 7 -8 35 19 29 29 -8 14 -21 11 -28
-7z"/>
<path d="M2271 224 c0 -11 3 -14 6 -6 3 7 2 16 -1 19 -3 4 -6 -2 -5 -13z"/>
<path d="M2228 218 c-4 -10 -14 -18 -23 -18 -8 0 -15 -4 -15 -10 0 -5 6 -10
13 -10 22 0 39 17 35 36 -3 18 -4 18 -10 2z"/>
<path d="M402 164 c-7 -8 -8 -14 -3 -14 10 0 25 19 20 25 -2 1 -10 -3 -17 -11z"/>
<path d="M1463 73 c9 -2 23 -2 30 0 6 3 -1 5 -18 5 -16 0 -22 -2 -12 -5z"/>
<path d="M1548 73 c18 -2 45 -2 60 0 15 2 0 4 -33 4 -33 0 -45 -2 -27 -4z"/>
</g>
</svg>
